# xmcd
#
# Track frame offsets: 
#        150
#        26360
#        49190
#        70818
#        92055
#        113238
#        132418
#        160545
#        178365
#        207150
#
# Disc length: 3086 seconds
#
# Revision: 2
# Processed by: cddbd v1.5.2PL0 Copyright (c) Steve Scherf et al.
# Submitted via: ExactAudioCopyFreeDBPlugin 1.0
#
DISCID=860c0c0a
DTITLE=Török Ádám and RABB - Üres a ház nélküled baby
DYEAR=1996
DGENRE=Blues
TTITLE0=Körbezárt a Dzsungel
TTITLE1=Üres a Ház
TTITLE2=Maroktelefon
TTITLE3=Sziget '96 Blues
TTITLE4=Bassroom
TTITLE5=Funky Night
TTITLE6=Reggeli Tó
TTITLE7=Aieeao
TTITLE8=Királyi Éji Vad
TTITLE9=Titkos Kert
EXTD=
EXTT0=
EXTT1=
EXTT2=
EXTT3=
EXTT4=
EXTT5=
EXTT6=
EXTT7=
EXTT8=
EXTT9=
PLAYORDER=
